<svg width="42" height="40" viewBox="0 0 42 40" fill="none" xmlns="http://www.w3.org/2000/svg">
<rect width="42" height="40" rx="20" fill="url(#paint0_linear_1285_1883)"/>
<g clip-path="url(#clip0_1285_1883)">
<path d="M21.0031 12.7692C20.151 12.7692 19.3297 12.8728 18.5394 13.0738V11.2037C18.5394 11.1611 18.5394 11.1184 18.527 11.0758C18.3726 9.0229 16.7487 7.5 14.7728 7.5C12.7969 7.5 11.1729 9.01681 11.0123 11.0758C11.0062 11.1184 11 18.0994 11 18.0994V22.6377C11 22.6681 11 22.6986 11 22.7351C11.0494 28.1384 15.5076 32.5061 21.0031 32.5061C26.4986 32.5061 31.0062 28.0897 31.0062 22.6377C31.0062 17.1857 26.5295 12.7692 21.0031 12.7692ZM21.0031 30.9832C16.3288 30.9832 12.5375 27.2429 12.5375 22.6316V11.2707C12.5375 10.0402 13.5378 9.04727 14.7728 9.04727C16.0077 9.04727 17.008 10.0402 17.008 11.2707V22.5341C17.008 24.7149 18.7925 26.5911 21.0093 26.5911C23.226 26.5911 25.0167 24.8185 25.0167 22.6377C25.0167 20.4569 23.2198 18.6842 21.0093 18.6842C20.0831 18.6842 19.2248 18.9949 18.5455 19.5188V17.8253C19.2865 17.4537 20.1201 17.2466 21.0093 17.2466C24.0287 17.2466 26.4739 19.6589 26.4739 22.6377C26.4739 25.6165 24.0287 28.0288 21.0093 28.0288C17.9898 28.0288 15.5446 25.6165 15.5446 22.6377V11.1976C15.5446 10.826 15.1988 10.4727 14.7789 10.4727C14.3591 10.4727 14.0133 10.826 14.0133 11.1976V22.6316C14.0133 22.8082 14.0195 22.9788 14.0318 23.1494C14.2973 26.7251 17.3229 29.5395 21.0093 29.5395C24.6956 29.5395 28.0114 26.4449 28.0114 22.6316C28.0114 18.8182 24.8747 15.7237 21.0093 15.7237C20.1448 15.7237 19.3112 15.8821 18.5455 16.1623V14.6394C19.3236 14.4079 20.151 14.28 21.0093 14.28C25.6835 14.28 29.4748 18.0202 29.4748 22.6316C29.4748 27.2429 25.6835 30.9832 21.0093 30.9832H21.0031ZM18.5394 22.6377C18.5394 21.2975 19.6446 20.2071 21.0031 20.2071C22.3615 20.2071 23.4668 21.2975 23.4668 22.6377C23.4668 23.9778 22.3615 25.0682 21.0031 25.0682C19.6446 25.0682 18.5394 23.9778 18.5394 22.6377Z" fill="white"/>
</g>
<defs>
<linearGradient id="paint0_linear_1285_1883" x1="21" y1="0" x2="21" y2="40" gradientUnits="userSpaceOnUse">
<stop stop-color="#86C440"/>
<stop offset="1" stop-color="#15A449"/>
</linearGradient>
<clipPath id="clip0_1285_1883">
<rect width="20" height="25" fill="white" transform="translate(11 7.5)"/>
</clipPath>
</defs>
</svg>
