<svg width="42" height="40" viewBox="0 0 42 40" fill="none" xmlns="http://www.w3.org/2000/svg">
<rect x="0.5" y="0.5" width="41" height="39" rx="19.5" fill="white"/>
<rect x="0.5" y="0.5" width="41" height="39" rx="19.5" stroke="#E4E4E4"/>
<path d="M15.0661 14.6016H17.1306V21.0273C17.1306 23.2012 15.49 24.6367 13.029 24.6367C10.5681 24.6367 8.94113 23.2012 8.94113 21.0273V14.6016H10.9919V20.8633C10.9919 21.998 11.7986 22.832 13.029 22.832C14.2732 22.832 15.0661 21.998 15.0661 20.8633V14.6016ZM18.5186 24.5V14.6016H22.4014C24.6572 14.6016 25.9424 15.873 25.9424 17.8281C25.9424 19.1816 25.3203 20.166 24.1924 20.6445L26.2979 24.5H24.0283L22.1416 20.9863H20.5693V24.5H18.5186ZM20.5693 19.3184H22.0186C23.2354 19.3184 23.8232 18.8125 23.8232 17.8281C23.8232 16.8301 23.2354 16.2832 22.0186 16.2832H20.5693V19.3184ZM27.0843 24.5V14.6016H29.135V22.8047H33.4007V24.5H27.0843Z" fill="#424242"/>
</svg>
